<?xml version="1.0"?><svg width="793.7007874015749" height="1122.5196850393702" xmlns="http://www.w3.org/2000/svg">
 <title>dotty one</title>
 <metadata id="metadata4">image/svg+xml</metadata>
 <g>
  <title>Layer 1</title>
  <g id="layer1">
   <path fill="#778cff" fill-rule="evenodd" stroke="#000000" stroke-width="11.027627" stroke-miterlimit="4" id="path2383" d="m34.028301,227.496994l147.034702,194.296005l147.034988,-123.404999l-26.255981,538.254028l-199.54702,-21.005005l0,225.802917l593.390984,0l-36.758972,-252.059937l-162.789001,21.005005l99.773987,-719.420898l-204.798981,-68.266302l-357.084705,204.799185l0,0z"/>
   <path fill="#778cff" stroke="#000000" stroke-width="3" stroke-miterlimit="4" stroke-dashoffset="0" d="m529.290466,167.109879a80.413292,80.413292 0 1 1 0,0" id="path3157"/>
   <path fill="#778cff" stroke="#000000" stroke-width="2" stroke-miterlimit="4" stroke-dashoffset="0" d="m506.751495,170.390686a41.464088,41.464088 0 1 1 0,0" id="path3196"/>
   <path fill="#778cff" stroke="#000000" d="m482.626892,170.389847a17.33952,17.33952 0 1 1 0,0" id="path3198"/>
   <path fill="#778cff" stroke="#000000" d="m487.150238,160.588959a7.53891,7.53891 0 1 1 0,0" id="path3200"/>
   <path fill="#778cff" stroke="#000000" stroke-width="3" stroke-miterlimit="4" stroke-dashoffset="0" d="m375.35968,77.838226a68.266273,68.266273 0 1 1 0,0" id="path3155"/>
   <path fill="#778cff" stroke="#000000" stroke-width="2" stroke-miterlimit="4" stroke-dashoffset="0" d="m353.587769,66.021606a30.74062,30.74062 0 1 1 0,0" id="path3183"/>
   <path fill="#778cff" stroke="#000000" d="m335.702301,66.021004a12.85516,12.85516 0 1 1 0,0" id="path3185"/>
   <path fill="#778cff" stroke="#000000" d="m339.055817,58.754799a5.58919,5.58919 0 1 1 0,0" id="path3187"/>
  </g>
  <circle id="svg_1" r="38.183731" cy="453.480347" cx="375.299194" stroke-width="5" stroke="#6adee2" fill="#77cdff"/>
  <circle id="svg_3" r="38.183716" cy="206.480347" cx="185.299194" stroke-width="5" stroke="#6adee2" fill="#77cdff"/>
  <circle id="svg_4" r="38.183716" cy="96.480347" cx="399.299194" stroke-width="5" stroke="#6adee2" fill="#77cdff"/>
  <circle id="svg_5" r="38.183716" cy="327.480347" cx="499.299194" stroke-width="5" stroke="#6adee2" fill="#77cdff"/>
  <circle id="svg_6" r="38.183716" cy="167.480347" cx="528.299194" stroke-width="5" stroke="#6adee2" fill="#77cdff"/>
  <circle id="svg_7" r="38.183716" cy="233.480347" cx="336.299194" stroke-width="5" stroke="#6adee2" fill="#77cdff"/>
  <circle id="svg_8" r="38.183716" cy="333.480347" cx="195.299194" stroke-width="5" stroke="#6adee2" fill="#77cdff"/>
  <circle id="svg_9" r="38.183731" cy="555.480347" cx="470.299194" stroke-width="5" stroke="#6adee2" fill="#77cdff"/>
  <circle id="svg_10" r="38.183716" cy="674.480347" cx="375.299194" stroke-width="5" stroke="#6adee2" fill="#77cdff"/>
  <circle id="svg_11" r="38.183716" cy="830.480347" cx="442.299194" stroke-width="5" stroke="#6adee2" fill="#77cdff"/>
  <circle id="svg_12" r="38.183716" cy="893.480347" cx="169.299194" stroke-width="5" stroke="#6adee2" fill="#77cdff"/>
  <circle id="svg_13" r="38.183716" cy="946.480347" cx="370.299194" stroke-width="5" stroke="#6adee2" fill="#77cdff"/>
  <circle id="svg_14" r="38.183716" cy="991.480347" cx="238.299194" stroke-width="5" stroke="#6adee2" fill="#77cdff"/>
  <circle id="svg_15" r="38.183716" cy="883.480347" cx="573.299194" stroke-width="5" stroke="#6adee2" fill="#77cdff"/>
  <circle id="svg_16" r="38.183716" cy="990.480347" cx="507.299194" stroke-width="5" stroke="#6adee2" fill="#77cdff"/>
 </g>
</svg>