<?xml version="1.0" encoding="UTF-8" standalone="no"?>
<!-- Created with Inkscape (http://www.inkscape.org/) -->

<svg
   xmlns:dc="http://purl.org/dc/elements/1.1/"
   xmlns:cc="http://creativecommons.org/ns#"
   xmlns:rdf="http://www.w3.org/1999/02/22-rdf-syntax-ns#"
   xmlns:svg="http://www.w3.org/2000/svg"
   xmlns="http://www.w3.org/2000/svg"
   xmlns:sodipodi="http://sodipodi.sourceforge.net/DTD/sodipodi-0.dtd"
   xmlns:inkscape="http://www.inkscape.org/namespaces/inkscape"
   width="210mm"
   height="297mm"
   id="svg4266"
   version="1.1"
   inkscape:version="0.47 r22583"
   sodipodi:docname="six.png">
  <defs
     id="defs3">
    <inkscape:perspective
       sodipodi:type="inkscape:persp3d"
       inkscape:vp_x="0 : 526.18109 : 1"
       inkscape:vp_y="0 : 1000 : 0"
       inkscape:vp_z="744.09448 : 526.18109 : 1"
       inkscape:persp3d-origin="372.04724 : 350.78739 : 1"
       id="perspective4272" />
    <inkscape:perspective
       id="perspective4282"
       inkscape:persp3d-origin="0.5 : 0.33333333 : 1"
       inkscape:vp_z="1 : 0.5 : 1"
       inkscape:vp_y="0 : 1000 : 0"
       inkscape:vp_x="0 : 0.5 : 1"
       sodipodi:type="inkscape:persp3d" />
    <inkscape:perspective
       id="perspective4397"
       inkscape:persp3d-origin="0.5 : 0.33333333 : 1"
       inkscape:vp_z="1 : 0.5 : 1"
       inkscape:vp_y="0 : 1000 : 0"
       inkscape:vp_x="0 : 0.5 : 1"
       sodipodi:type="inkscape:persp3d" />
    <inkscape:perspective
       id="perspective4476"
       inkscape:persp3d-origin="0.5 : 0.33333333 : 1"
       inkscape:vp_z="1 : 0.5 : 1"
       inkscape:vp_y="0 : 1000 : 0"
       inkscape:vp_x="0 : 0.5 : 1"
       sodipodi:type="inkscape:persp3d" />
    <inkscape:perspective
       id="perspective4615"
       inkscape:persp3d-origin="0.5 : 0.33333333 : 1"
       inkscape:vp_z="1 : 0.5 : 1"
       inkscape:vp_y="0 : 1000 : 0"
       inkscape:vp_x="0 : 0.5 : 1"
       sodipodi:type="inkscape:persp3d" />
  </defs>
  <sodipodi:namedview
     inkscape:document-units="mm"
     id="base"
     pagecolor="#ffffff"
     bordercolor="#666666"
     borderopacity="1.0"
     inkscape:pageopacity="0.0"
     inkscape:pageshadow="2"
     inkscape:zoom="0.35"
     inkscape:cx="350"
     inkscape:cy="520"
     inkscape:current-layer="layer1"
     showgrid="false"
     inkscape:window-width="624"
     inkscape:window-height="946"
     inkscape:window-x="640"
     inkscape:window-y="0"
     inkscape:window-maximized="0" />
  <metadata
     id="metadata4">
    <rdf:RDF>
      <cc:Work
         rdf:about="">
        <dc:format>image/svg+xml</dc:format>
        <dc:type
           rdf:resource="http://purl.org/dc/dcmitype/StillImage" />
        <dc:title></dc:title>
      </cc:Work>
    </rdf:RDF>
  </metadata>
  <g
     inkscape:label="Layer 1"
     inkscape:groupmode="layer"
     id="layer1">
    <g
       id="g3594"
       transform="matrix(4.2085122,0,0,4.2085122,-1671.5492,-160.20597)">
      <path
         id="path3474"
         d="m 450.75243,119.99916 9.28571,11.42857 28.57143,-11.07143 c 0,0 -3.92857,-9.28571 -20.35714,-8.92857 -16.42858,0.35715 -17.5,8.21429 -17.5,8.57143 z"
         style="fill:#f4d7d7;fill-rule:evenodd;stroke:#d35f5f;stroke-width:1px;stroke-linecap:butt;stroke-linejoin:miter;stroke-opacity:1" />
      <path
         id="path3476"
         d="m 468.25243,148.92773 0.71428,-9.28571 27.14286,1.42857 0.35714,0.35714 c 0,0 2.14286,11.42857 -8.57143,11.78572 -10.71428,0.35714 -19.64285,-4.28572 -19.64285,-4.28572 z"
         style="fill:#f4d7d7;fill-rule:evenodd;stroke:#d35f5f;stroke-width:1px;stroke-linecap:butt;stroke-linejoin:miter;stroke-opacity:1" />
      <path
         sodipodi:nodetypes="ccsccssccsscssc"
         id="path3456"
         d="m 410.12194,89.68681 13.13198,43.43656 c 0,0 52.03243,-32.44539 66.67007,-11.11168 30.20305,44.01958 -45.54968,23.35607 -45.54968,23.35607 l 2.43873,35.5794 c 0,0 66.93619,-22.54024 70.38507,13.79551 1.8236,19.21259 -23.42599,33.79199 -41.41626,29.29443 -28.28427,-7.07107 -38.38579,-27.27412 -38.38579,-27.27412 l -37.37565,32.32488 c 0,0 12.12183,47.47717 91.92388,45.45687 79.80205,-2.02031 82.83251,-91.92389 76.7716,-109.09648 -6.06092,-17.17259 -26.26397,-21.2132 -26.26397,-21.2132 0,0 10.10153,-11.11168 10.10153,-34.34519 0,-23.23351 -15.15229,-48.48732 -57.5787,-57.57869 -42.4264,-9.09138 -84.85281,38.38579 -84.85281,37.37564 z"
         style="fill:#c83737;fill-rule:evenodd;stroke:#a02c2c;stroke-width:3;stroke-linecap:butt;stroke-linejoin:miter;stroke-miterlimit:4;stroke-opacity:1;stroke-dasharray:none" />
      <path
         transform="translate(243.44677,-304.05592)"
         sodipodi:open="true"
         sodipodi:end="6.2832186"
         sodipodi:start="3.3369056e-05"
         d="m 279.81225,401.82448 c -3e-4,8.92627 -7.23671,16.1622 -16.16298,16.16191 -8.92627,-3e-4 -16.1622,-7.23672 -16.1619,-16.16299 3e-4,-8.92627 7.23671,-16.1622 16.16298,-16.1619 8.92627,3e-4 16.1622,7.23671 16.1619,16.16298"
         sodipodi:ry="16.162441"
         sodipodi:rx="16.162441"
         sodipodi:cy="401.82394"
         sodipodi:cx="263.64981"
         id="path3458"
         style="fill:#f4d7d7;fill-opacity:1;stroke:#a02c2c;stroke-width:3;stroke-miterlimit:4;stroke-opacity:1;stroke-dasharray:none;stroke-dashoffset:0"
         sodipodi:type="arc" />
      <path
         transform="translate(271.73104,-284.86302)"
         sodipodi:open="true"
         sodipodi:end="6.2832186"
         sodipodi:start="3.3369056e-05"
         d="m 216.17265,363.43905 c -5.1e-4,15.06308 -12.21195,27.27371 -27.27503,27.27321 -15.06308,-5e-4 -27.27371,-12.21195 -27.27321,-27.27503 5e-4,-15.06308 12.21195,-27.27371 27.27503,-27.27321 15.06308,5.1e-4 27.27371,12.21195 27.27321,27.27503"
         sodipodi:ry="27.274118"
         sodipodi:rx="27.274118"
         sodipodi:cy="363.43814"
         sodipodi:cx="188.89853"
         id="path3460"
         style="fill:#f4d7d7;fill-opacity:1;stroke:#a02c2c;stroke-width:3;stroke-miterlimit:4;stroke-opacity:1;stroke-dasharray:none;stroke-dashoffset:0"
         sodipodi:type="arc" />
      <path
         transform="translate(252.53814,-284.86302)"
         sodipodi:open="true"
         sodipodi:end="6.2832186"
         sodipodi:start="3.3369056e-05"
         d="m 226.27417,364.95379 c -2.3e-4,6.97365 -5.65368,12.62672 -12.62733,12.62649 -6.97365,-2.4e-4 -12.62672,-5.65368 -12.62648,-12.62733 2.3e-4,-6.97365 5.65368,-12.62672 12.62732,-12.62649 6.97365,2.4e-4 12.62672,5.65368 12.62649,12.62733"
         sodipodi:ry="12.626906"
         sodipodi:rx="12.626906"
         sodipodi:cy="364.95337"
         sodipodi:cx="213.64726"
         id="path3462"
         style="fill:#501616;fill-opacity:1;stroke:none"
         sodipodi:type="arc" />
      <path
         transform="matrix(0.76,0,0,0.76,341.6942,-181.11177)"
         sodipodi:type="arc"
         style="fill:#501616;fill-opacity:1;stroke:none"
         id="path3464"
         sodipodi:cx="213.64726"
         sodipodi:cy="364.95337"
         sodipodi:rx="12.626906"
         sodipodi:ry="12.626906"
         d="m 226.27417,364.95379 c -2.3e-4,6.97365 -5.65368,12.62672 -12.62733,12.62649 -6.97365,-2.4e-4 -12.62672,-5.65368 -12.62648,-12.62733 2.3e-4,-6.97365 5.65368,-12.62672 12.62732,-12.62649 6.97365,2.4e-4 12.62672,5.65368 12.62649,12.62733"
         sodipodi:start="3.3369056e-05"
         sodipodi:end="6.2832186"
         sodipodi:open="true" />
      <path
         transform="matrix(1.4130435,0,0,1.4130435,163.13985,-434.43731)"
         sodipodi:open="true"
         sodipodi:end="6.2832186"
         sodipodi:start="3.3369056e-05"
         d="m 219.46429,364.50517 c -8e-5,2.26831 -1.83897,4.10708 -4.10728,4.10701 -2.26831,-8e-5 -4.10708,-1.83897 -4.10701,-4.10728 8e-5,-2.26831 1.83897,-4.10708 4.10728,-4.10701 2.26832,8e-5 4.10709,1.83897 4.10701,4.10728"
         sodipodi:ry="4.1071429"
         sodipodi:rx="4.1071429"
         sodipodi:cy="364.50504"
         sodipodi:cx="215.35715"
         id="path3466"
         style="fill:#280b0b;fill-opacity:1;stroke:none"
         sodipodi:type="arc" />
      <path
         sodipodi:type="arc"
         style="fill:#280b0b;fill-opacity:1;stroke:none"
         id="path3468"
         sodipodi:cx="215.35715"
         sodipodi:cy="364.50504"
         sodipodi:rx="4.1071429"
         sodipodi:ry="4.1071429"
         d="m 219.46429,364.50517 c -8e-5,2.26831 -1.83897,4.10708 -4.10728,4.10701 -2.26831,-8e-5 -4.10708,-1.83897 -4.10701,-4.10728 8e-5,-2.26831 1.83897,-4.10708 4.10728,-4.10701 2.26832,8e-5 4.10709,1.83897 4.10701,4.10728"
         sodipodi:start="3.3369056e-05"
         sodipodi:end="6.2832186"
         sodipodi:open="true"
         transform="matrix(1.4130435,0,0,1.4130435,197.96128,-419.08017)" />
      <path
         transform="translate(252.53814,-284.86302)"
         sodipodi:open="true"
         sodipodi:end="6.2832186"
         sodipodi:start="3.3369056e-05"
         d="m 221.78571,362.89796 c -4e-5,1.18347 -0.95946,2.14282 -2.14293,2.14279 -1.18347,-4e-5 -2.14282,-0.95947 -2.14278,-2.14293 4e-5,-1.18347 0.95946,-2.14283 2.14292,-2.14279 1.18347,4e-5 2.14283,0.95946 2.14279,2.14293"
         sodipodi:ry="2.1428571"
         sodipodi:rx="2.1428571"
         sodipodi:cy="362.89789"
         sodipodi:cx="219.64285"
         id="path3470"
         style="fill:#e9afaf;fill-opacity:1;stroke:none"
         sodipodi:type="arc" />
      <path
         transform="translate(287.89528,-268.43445)"
         sodipodi:type="arc"
         style="fill:#ffd5d5;fill-opacity:1;stroke:none"
         id="path3472"
         sodipodi:cx="219.64285"
         sodipodi:cy="362.89789"
         sodipodi:rx="2.1428571"
         sodipodi:ry="2.1428571"
         d="m 221.78571,362.89796 c -4e-5,1.18347 -0.95946,2.14282 -2.14293,2.14279 -1.18347,-4e-5 -2.14282,-0.95947 -2.14278,-2.14293 4e-5,-1.18347 0.95946,-2.14283 2.14292,-2.14279 1.18347,4e-5 2.14283,0.95946 2.14279,2.14293"
         sodipodi:start="3.3369056e-05"
         sodipodi:end="6.2832186"
         sodipodi:open="true" />
      <path
         transform="translate(252.53814,-282.00588)"
         sodipodi:open="true"
         sodipodi:end="6.2832186"
         sodipodi:start="3.3369056e-05"
         d="m 205,522.71988 c -3.2e-4,9.66499 -7.8356,17.49974 -17.50058,17.49942 -9.66499,-3.2e-4 -17.49974,-7.8356 -17.49942,-17.50058 3.2e-4,-9.66499 7.8356,-17.49974 17.50058,-17.49942 9.66499,3.2e-4 17.49974,7.8356 17.49942,17.50058"
         sodipodi:ry="17.5"
         sodipodi:rx="17.5"
         sodipodi:cy="522.7193"
         sodipodi:cx="187.5"
         id="path3478"
         style="fill:#a02c2c;fill-opacity:1;stroke:none"
         sodipodi:type="arc" />
      <path
         transform="matrix(0.5510204,0,0,0.5510204,371.00752,-50.88701)"
         sodipodi:type="arc"
         style="fill:#a02c2c;fill-opacity:1;stroke:none"
         id="path3480"
         sodipodi:cx="187.5"
         sodipodi:cy="522.7193"
         sodipodi:rx="17.5"
         sodipodi:ry="17.5"
         d="m 205,522.71988 c -3.2e-4,9.66499 -7.8356,17.49974 -17.50058,17.49942 -9.66499,-3.2e-4 -17.49974,-7.8356 -17.49942,-17.50058 3.2e-4,-9.66499 7.8356,-17.49974 17.50058,-17.49942 9.66499,3.2e-4 17.49974,7.8356 17.49942,17.50058"
         sodipodi:start="3.3369056e-05"
         sodipodi:end="6.2832186"
         sodipodi:open="true" />
      <path
         sodipodi:open="true"
         sodipodi:end="6.2832186"
         sodipodi:start="3.3369056e-05"
         d="m 205,522.71988 c -3.2e-4,9.66499 -7.8356,17.49974 -17.50058,17.49942 -9.66499,-3.2e-4 -17.49974,-7.8356 -17.49942,-17.50058 3.2e-4,-9.66499 7.8356,-17.49974 17.50058,-17.49942 9.66499,3.2e-4 17.49974,7.8356 17.49942,17.50058"
         sodipodi:ry="17.5"
         sodipodi:rx="17.5"
         sodipodi:cy="522.7193"
         sodipodi:cx="187.5"
         id="path3482"
         style="fill:#a02c2c;fill-opacity:1;stroke:none"
         sodipodi:type="arc"
         transform="matrix(0.7959184,0,0,0.7959184,347.9463,-160.32847)" />
      <path
         transform="matrix(0.7959184,0,0,0.7959184,366.51773,-185.32847)"
         sodipodi:type="arc"
         style="fill:#a02c2c;fill-opacity:1;stroke:none"
         id="path3484"
         sodipodi:cx="187.5"
         sodipodi:cy="522.7193"
         sodipodi:rx="17.5"
         sodipodi:ry="17.5"
         d="m 205,522.71988 c -3.2e-4,9.66499 -7.8356,17.49974 -17.50058,17.49942 -9.66499,-3.2e-4 -17.49974,-7.8356 -17.49942,-17.50058 3.2e-4,-9.66499 7.8356,-17.49974 17.50058,-17.49942 9.66499,3.2e-4 17.49974,7.8356 17.49942,17.50058"
         sodipodi:start="3.3369056e-05"
         sodipodi:end="6.2832186"
         sodipodi:open="true" />
      <path
         sodipodi:open="true"
         sodipodi:end="6.2832186"
         sodipodi:start="3.3369056e-05"
         d="m 205,522.71988 c -3.2e-4,9.66499 -7.8356,17.49974 -17.50058,17.49942 -9.66499,-3.2e-4 -17.49974,-7.8356 -17.49942,-17.50058 3.2e-4,-9.66499 7.8356,-17.49974 17.50058,-17.49942 9.66499,3.2e-4 17.49974,7.8356 17.49942,17.50058"
         sodipodi:ry="17.5"
         sodipodi:rx="17.5"
         sodipodi:cy="522.7193"
         sodipodi:cx="187.5"
         id="path3486"
         style="fill:#a02c2c;fill-opacity:1;stroke:none"
         sodipodi:type="arc"
         transform="matrix(0.4489796,0,0,0.4489796,382.64018,23.52312)" />
      <path
         transform="matrix(0.4489796,0,0,0.4489796,352.64018,-22.19117)"
         sodipodi:type="arc"
         style="fill:#a02c2c;fill-opacity:1;stroke:none"
         id="path3488"
         sodipodi:cx="187.5"
         sodipodi:cy="522.7193"
         sodipodi:rx="17.5"
         sodipodi:ry="17.5"
         d="m 205,522.71988 c -3.2e-4,9.66499 -7.8356,17.49974 -17.50058,17.49942 -9.66499,-3.2e-4 -17.49974,-7.8356 -17.49942,-17.50058 3.2e-4,-9.66499 7.8356,-17.49974 17.50058,-17.49942 9.66499,3.2e-4 17.49974,7.8356 17.49942,17.50058"
         sodipodi:start="3.3369056e-05"
         sodipodi:end="6.2832186"
         sodipodi:open="true" />
      <path
         sodipodi:open="true"
         sodipodi:end="6.2832186"
         sodipodi:start="3.3369056e-05"
         d="m 205,522.71988 c -3.2e-4,9.66499 -7.8356,17.49974 -17.50058,17.49942 -9.66499,-3.2e-4 -17.49974,-7.8356 -17.49942,-17.50058 3.2e-4,-9.66499 7.8356,-17.49974 17.50058,-17.49942 9.66499,3.2e-4 17.49974,7.8356 17.49942,17.50058"
         sodipodi:ry="17.5"
         sodipodi:rx="17.5"
         sodipodi:cy="522.7193"
         sodipodi:cx="187.5"
         id="path3490"
         style="fill:#a02c2c;fill-opacity:1;stroke:none"
         sodipodi:type="arc"
         transform="matrix(0.4285715,0,0,0.4285715,442.53814,29.54801)" />
      <path
         transform="matrix(0.7551021,0,0,0.7551021,403.4565,-176.13584)"
         sodipodi:type="arc"
         style="fill:#a02c2c;fill-opacity:1;stroke:none"
         id="path3492"
         sodipodi:cx="187.5"
         sodipodi:cy="522.7193"
         sodipodi:rx="17.5"
         sodipodi:ry="17.5"
         d="m 205,522.71988 c -3.2e-4,9.66499 -7.8356,17.49974 -17.50058,17.49942 -9.66499,-3.2e-4 -17.49974,-7.8356 -17.49942,-17.50058 3.2e-4,-9.66499 7.8356,-17.49974 17.50058,-17.49942 9.66499,3.2e-4 17.49974,7.8356 17.49942,17.50058"
         sodipodi:start="3.3369056e-05"
         sodipodi:end="6.2832186"
         sodipodi:open="true" />
      <path
         sodipodi:open="true"
         sodipodi:end="6.2832186"
         sodipodi:start="3.3369056e-05"
         d="m 205,522.71988 c -3.2e-4,9.66499 -7.8356,17.49974 -17.50058,17.49942 -9.66499,-3.2e-4 -17.49974,-7.8356 -17.49942,-17.50058 3.2e-4,-9.66499 7.8356,-17.49974 17.50058,-17.49942 9.66499,3.2e-4 17.49974,7.8356 17.49942,17.50058"
         sodipodi:ry="17.5"
         sodipodi:rx="17.5"
         sodipodi:cy="522.7193"
         sodipodi:cx="187.5"
         id="path3494"
         style="fill:#a02c2c;fill-opacity:1;stroke:none"
         sodipodi:type="arc"
         transform="matrix(0.367347,0,0,0.367347,460.08916,4.05123)" />
      <path
         transform="matrix(0.7959184,0,0,0.7959184,402.94631,-231.04276)"
         sodipodi:type="arc"
         style="fill:#a02c2c;fill-opacity:1;stroke:none"
         id="path3496"
         sodipodi:cx="187.5"
         sodipodi:cy="522.7193"
         sodipodi:rx="17.5"
         sodipodi:ry="17.5"
         d="m 205,522.71988 c -3.2e-4,9.66499 -7.8356,17.49974 -17.50058,17.49942 -9.66499,-3.2e-4 -17.49974,-7.8356 -17.49942,-17.50058 3.2e-4,-9.66499 7.8356,-17.49974 17.50058,-17.49942 9.66499,3.2e-4 17.49974,7.8356 17.49942,17.50058"
         sodipodi:start="3.3369056e-05"
         sodipodi:end="6.2832186"
         sodipodi:open="true" />
      <path
         sodipodi:open="true"
         sodipodi:end="6.2832186"
         sodipodi:start="3.3369056e-05"
         d="m 205,522.71988 c -3.2e-4,9.66499 -7.8356,17.49974 -17.50058,17.49942 -9.66499,-3.2e-4 -17.49974,-7.8356 -17.49942,-17.50058 3.2e-4,-9.66499 7.8356,-17.49974 17.50058,-17.49942 9.66499,3.2e-4 17.49974,7.8356 17.49942,17.50058"
         sodipodi:ry="17.5"
         sodipodi:rx="17.5"
         sodipodi:cy="522.7193"
         sodipodi:cx="187.5"
         id="path3498"
         style="fill:#a02c2c;fill-opacity:1;stroke:none"
         sodipodi:type="arc"
         transform="matrix(0.7959184,0,0,0.7959184,375.08917,-250.32847)" />
      <path
         transform="matrix(0.367347,0,0,0.367347,480.08916,-33.09163)"
         sodipodi:type="arc"
         style="fill:#a02c2c;fill-opacity:1;stroke:none"
         id="path3500"
         sodipodi:cx="187.5"
         sodipodi:cy="522.7193"
         sodipodi:rx="17.5"
         sodipodi:ry="17.5"
         d="m 205,522.71988 c -3.2e-4,9.66499 -7.8356,17.49974 -17.50058,17.49942 -9.66499,-3.2e-4 -17.49974,-7.8356 -17.49942,-17.50058 3.2e-4,-9.66499 7.8356,-17.49974 17.50058,-17.49942 9.66499,3.2e-4 17.49974,7.8356 17.49942,17.50058"
         sodipodi:start="3.3369056e-05"
         sodipodi:end="6.2832186"
         sodipodi:open="true" />
      <path
         transform="matrix(0.8979592,0,0,0.8979592,348.45652,-336.88146)"
         sodipodi:type="arc"
         style="fill:#a02c2c;fill-opacity:1;stroke:none"
         id="path3502"
         sodipodi:cx="187.5"
         sodipodi:cy="522.7193"
         sodipodi:rx="17.5"
         sodipodi:ry="17.5"
         d="m 205,522.71988 c -3.2e-4,9.66499 -7.8356,17.49974 -17.50058,17.49942 -9.66499,-3.2e-4 -17.49974,-7.8356 -17.49942,-17.50058 3.2e-4,-9.66499 7.8356,-17.49974 17.50058,-17.49942 9.66499,3.2e-4 17.49974,7.8356 17.49942,17.50058"
         sodipodi:start="3.3369056e-05"
         sodipodi:end="6.2832186"
         sodipodi:open="true" />
      <path
         sodipodi:open="true"
         sodipodi:end="6.2832186"
         sodipodi:start="3.3369056e-05"
         d="m 205,522.71988 c -3.2e-4,9.66499 -7.8356,17.49974 -17.50058,17.49942 -9.66499,-3.2e-4 -17.49974,-7.8356 -17.49942,-17.50058 3.2e-4,-9.66499 7.8356,-17.49974 17.50058,-17.49942 9.66499,3.2e-4 17.49974,7.8356 17.49942,17.50058"
         sodipodi:ry="17.5"
         sodipodi:rx="17.5"
         sodipodi:cy="522.7193"
         sodipodi:cx="187.5"
         id="path3504"
         style="fill:#a02c2c;fill-opacity:1;stroke:none"
         sodipodi:type="arc"
         transform="matrix(0.367347,0,0,0.367347,470.80345,-73.09163)" />
      <path
         transform="matrix(0.5306123,0,0,0.5306123,438.04835,-177.71927)"
         sodipodi:type="arc"
         style="fill:#a02c2c;fill-opacity:1;stroke:none"
         id="path3506"
         sodipodi:cx="187.5"
         sodipodi:cy="522.7193"
         sodipodi:rx="17.5"
         sodipodi:ry="17.5"
         d="m 205,522.71988 c -3.2e-4,9.66499 -7.8356,17.49974 -17.50058,17.49942 -9.66499,-3.2e-4 -17.49974,-7.8356 -17.49942,-17.50058 3.2e-4,-9.66499 7.8356,-17.49974 17.50058,-17.49942 9.66499,3.2e-4 17.49974,7.8356 17.49942,17.50058"
         sodipodi:start="3.3369056e-05"
         sodipodi:end="6.2832186"
         sodipodi:open="true" />
      <path
         sodipodi:open="true"
         sodipodi:end="6.2832186"
         sodipodi:start="3.3369056e-05"
         d="m 205,522.71988 c -3.2e-4,9.66499 -7.8356,17.49974 -17.50058,17.49942 -9.66499,-3.2e-4 -17.49974,-7.8356 -17.49942,-17.50058 3.2e-4,-9.66499 7.8356,-17.49974 17.50058,-17.49942 9.66499,3.2e-4 17.49974,7.8356 17.49942,17.50058"
         sodipodi:ry="17.5"
         sodipodi:rx="17.5"
         sodipodi:cy="522.7193"
         sodipodi:cx="187.5"
         id="path3508"
         style="fill:#a02c2c;fill-opacity:1;stroke:none"
         sodipodi:type="arc"
         transform="matrix(0.5306123,0,0,0.5306123,402.33406,-209.86213)" />
      <path
         transform="matrix(0.367347,0,0,0.367347,455.08916,-114.5202)"
         sodipodi:type="arc"
         style="fill:#a02c2c;fill-opacity:1;stroke:none"
         id="path3510"
         sodipodi:cx="187.5"
         sodipodi:cy="522.7193"
         sodipodi:rx="17.5"
         sodipodi:ry="17.5"
         d="m 205,522.71988 c -3.2e-4,9.66499 -7.8356,17.49974 -17.50058,17.49942 -9.66499,-3.2e-4 -17.49974,-7.8356 -17.49942,-17.50058 3.2e-4,-9.66499 7.8356,-17.49974 17.50058,-17.49942 9.66499,3.2e-4 17.49974,7.8356 17.49942,17.50058"
         sodipodi:start="3.3369056e-05"
         sodipodi:end="6.2832186"
         sodipodi:open="true" />
      <path
         sodipodi:open="true"
         sodipodi:end="6.2832186"
         sodipodi:start="3.3369056e-05"
         d="m 205,522.71988 c -3.2e-4,9.66499 -7.8356,17.49974 -17.50058,17.49942 -9.66499,-3.2e-4 -17.49974,-7.8356 -17.49942,-17.50058 3.2e-4,-9.66499 7.8356,-17.49974 17.50058,-17.49942 9.66499,3.2e-4 17.49974,7.8356 17.49942,17.50058"
         sodipodi:ry="17.5"
         sodipodi:rx="17.5"
         sodipodi:cy="522.7193"
         sodipodi:cx="187.5"
         id="path3512"
         style="fill:#a02c2c;fill-opacity:1;stroke:none"
         sodipodi:type="arc"
         transform="matrix(0.7142857,0,0,0.7142857,298.96673,-263.37179)" />
      <path
         transform="matrix(0.3061224,0,0,0.3061224,368.35448,-71.44554)"
         sodipodi:type="arc"
         style="fill:#a02c2c;fill-opacity:1;stroke:none"
         id="path3514"
         sodipodi:cx="187.5"
         sodipodi:cy="522.7193"
         sodipodi:rx="17.5"
         sodipodi:ry="17.5"
         d="m 205,522.71988 c -3.2e-4,9.66499 -7.8356,17.49974 -17.50058,17.49942 -9.66499,-3.2e-4 -17.49974,-7.8356 -17.49942,-17.50058 3.2e-4,-9.66499 7.8356,-17.49974 17.50058,-17.49942 9.66499,3.2e-4 17.49974,7.8356 17.49942,17.50058"
         sodipodi:start="3.3369056e-05"
         sodipodi:end="6.2832186"
         sodipodi:open="true" />
      <path
         transform="matrix(0.5102041,0,0,0.5102041,364.37488,-104.55152)"
         sodipodi:type="arc"
         style="fill:#a02c2c;fill-opacity:1;stroke:none"
         id="path3516"
         sodipodi:cx="187.5"
         sodipodi:cy="522.7193"
         sodipodi:rx="17.5"
         sodipodi:ry="17.5"
         d="m 205,522.71988 c -3.2e-4,9.66499 -7.8356,17.49974 -17.50058,17.49942 -9.66499,-3.2e-4 -17.49974,-7.8356 -17.49942,-17.50058 3.2e-4,-9.66499 7.8356,-17.49974 17.50058,-17.49942 9.66499,3.2e-4 17.49974,7.8356 17.49942,17.50058"
         sodipodi:start="3.3369056e-05"
         sodipodi:end="6.2832186"
         sodipodi:open="true" />
      <path
         sodipodi:open="true"
         sodipodi:end="6.2832186"
         sodipodi:start="3.3369056e-05"
         d="m 205,522.71988 c -3.2e-4,9.66499 -7.8356,17.49974 -17.50058,17.49942 -9.66499,-3.2e-4 -17.49974,-7.8356 -17.49942,-17.50058 3.2e-4,-9.66499 7.8356,-17.49974 17.50058,-17.49942 9.66499,3.2e-4 17.49974,7.8356 17.49942,17.50058"
         sodipodi:ry="17.5"
         sodipodi:rx="17.5"
         sodipodi:cy="522.7193"
         sodipodi:cx="187.5"
         id="path3518"
         style="fill:#a02c2c;fill-opacity:1;stroke:none"
         sodipodi:type="arc"
         transform="matrix(0.367347,0,0,0.367347,410.80345,-29.5202)" />
      <path
         transform="matrix(0.244898,0,0,0.244898,455.1912,23.77196)"
         sodipodi:type="arc"
         style="fill:#a02c2c;fill-opacity:1;stroke:none"
         id="path3520"
         sodipodi:cx="187.5"
         sodipodi:cy="522.7193"
         sodipodi:rx="17.5"
         sodipodi:ry="17.5"
         d="m 205,522.71988 c -3.2e-4,9.66499 -7.8356,17.49974 -17.50058,17.49942 -9.66499,-3.2e-4 -17.49974,-7.8356 -17.49942,-17.50058 3.2e-4,-9.66499 7.8356,-17.49974 17.50058,-17.49942 9.66499,3.2e-4 17.49974,7.8356 17.49942,17.50058"
         sodipodi:start="3.3369056e-05"
         sodipodi:end="6.2832186"
         sodipodi:open="true" />
      <path
         sodipodi:open="true"
         sodipodi:end="6.2832186"
         sodipodi:start="3.3369056e-05"
         d="m 205,522.71988 c -3.2e-4,9.66499 -7.8356,17.49974 -17.50058,17.49942 -9.66499,-3.2e-4 -17.49974,-7.8356 -17.49942,-17.50058 3.2e-4,-9.66499 7.8356,-17.49974 17.50058,-17.49942 9.66499,3.2e-4 17.49974,7.8356 17.49942,17.50058"
         sodipodi:ry="17.5"
         sodipodi:rx="17.5"
         sodipodi:cy="522.7193"
         sodipodi:cx="187.5"
         id="path3522"
         style="fill:#a02c2c;fill-opacity:1;stroke:none"
         sodipodi:type="arc"
         transform="matrix(0.3877551,0,0,0.3877551,425.90549,-39.8308)" />
    </g>
  </g>
</svg>
